<svg width="102" height="72" viewBox="0 0 102 72" fill="none" xmlns="http://www.w3.org/2000/svg">
<ellipse cx="63" cy="36" rx="37" ry="36" fill="black"/>
<g filter="url(#filter0_d_29_35)">
<path d="M46.1785 45V27.576H51.0265C52.7545 27.576 54.2265 27.84 55.4425 28.368C56.6585 28.896 57.6345 29.592 58.3705 30.456C59.1225 31.32 59.6665 32.28 60.0025 33.336C60.3545 34.392 60.5305 35.456 60.5305 36.528C60.5305 37.824 60.2985 38.992 59.8345 40.032C59.3705 41.072 58.7385 41.968 57.9385 42.72C57.1385 43.456 56.2185 44.024 55.1785 44.424C54.1385 44.808 53.0345 45 51.8665 45H46.1785ZM48.7465 42.528H51.3865C52.3305 42.528 53.1945 42.392 53.9785 42.12C54.7785 41.848 55.4665 41.448 56.0425 40.92C56.6345 40.392 57.0905 39.744 57.4105 38.976C57.7305 38.208 57.8905 37.328 57.8905 36.336C57.8905 35.264 57.7065 34.336 57.3385 33.552C56.9865 32.752 56.5145 32.096 55.9225 31.584C55.3305 31.056 54.6665 30.672 53.9305 30.432C53.2105 30.176 52.4745 30.048 51.7225 30.048H48.7465V42.528ZM64.6305 45V37.128H62.9265V34.944H64.6305V30.864C64.6305 29.424 64.9745 28.312 65.6625 27.528C66.3505 26.744 67.3505 26.352 68.6625 26.352C69.0145 26.352 69.4065 26.408 69.8385 26.52C70.2705 26.616 70.6545 26.776 70.9905 27L69.9585 28.8C69.8145 28.64 69.6465 28.528 69.4545 28.464C69.2785 28.4 69.0945 28.368 68.9025 28.368C68.3425 28.368 67.9025 28.56 67.5825 28.944C67.2625 29.328 67.1025 29.984 67.1025 30.912V34.944H70.2705V37.128H67.1025V45H64.6305Z" fill="white"/>
<path d="M46.1785 45H45.1785V46H46.1785V45ZM46.1785 27.576V26.576H45.1785V27.576H46.1785ZM55.4425 28.368L55.8408 27.4507L55.8408 27.4507L55.4425 28.368ZM58.3705 30.456L57.6092 31.1045L57.6162 31.1125L58.3705 30.456ZM60.0025 33.336L59.0495 33.6392L59.0538 33.6522L60.0025 33.336ZM59.8345 40.032L58.9212 39.6246L58.9212 39.6246L59.8345 40.032ZM57.9385 42.72L58.6156 43.456L58.6234 43.4486L57.9385 42.72ZM55.1785 44.424L55.5249 45.3622L55.5374 45.3573L55.1785 44.424ZM48.7465 42.528H47.7465V43.528H48.7465V42.528ZM53.9785 42.12L53.6566 41.1732L53.6507 41.1752L53.9785 42.12ZM56.0425 40.92L55.3768 40.1736L55.3667 40.1828L56.0425 40.92ZM57.4105 38.976L58.3335 39.3606L58.3335 39.3606L57.4105 38.976ZM57.3385 33.552L56.4232 33.9547L56.4281 33.9659L56.4332 33.9769L57.3385 33.552ZM55.9225 31.584L55.2569 32.3303L55.2625 32.3354L55.2683 32.3404L55.9225 31.584ZM53.9305 30.432L53.5955 31.3742L53.6079 31.3786L53.6204 31.3827L53.9305 30.432ZM48.7465 30.048V29.048H47.7465V30.048H48.7465ZM47.1785 45V27.576H45.1785V45H47.1785ZM46.1785 28.576H51.0265V26.576H46.1785V28.576ZM51.0265 28.576C52.6572 28.576 53.9858 28.8257 55.0442 29.2853L55.8408 27.4507C54.4671 26.8543 52.8518 26.576 51.0265 26.576V28.576ZM55.0442 29.2853C56.1437 29.7627 56.9875 30.3746 57.6092 31.1045L59.1317 29.8075C58.2815 28.8094 57.1732 28.0293 55.8408 27.4507L55.0442 29.2853ZM57.6162 31.1125C58.2816 31.8771 58.7563 32.7177 59.0495 33.6392L60.9554 33.0328C60.5766 31.8423 59.9633 30.7629 59.1248 29.7995L57.6162 31.1125ZM59.0538 33.6522C59.3731 34.6102 59.5305 35.5676 59.5305 36.528H61.5305C61.5305 35.3444 61.3358 34.1738 60.9512 33.0198L59.0538 33.6522ZM59.5305 36.528C59.5305 37.7029 59.3206 38.7293 58.9212 39.6246L60.7477 40.4394C61.2763 39.2547 61.5305 37.9451 61.5305 36.528H59.5305ZM58.9212 39.6246C58.5092 40.548 57.9533 41.3336 57.2536 41.9914L58.6234 43.4486C59.5236 42.6024 60.2317 41.596 60.7477 40.4394L58.9212 39.6246ZM57.2614 41.9841C56.5564 42.6327 55.745 43.1347 54.8195 43.4907L55.5374 45.3573C56.692 44.9133 57.7205 44.2793 58.6155 43.4559L57.2614 41.9841ZM54.8321 43.4859C53.9088 43.8268 52.9227 44 51.8665 44V46C53.1463 46 54.3681 45.7892 55.5248 45.3621L54.8321 43.4859ZM51.8665 44H46.1785V46H51.8665V44ZM48.7465 43.528H51.3865V41.528H48.7465V43.528ZM51.3865 43.528C52.4269 43.528 53.4034 43.378 54.3062 43.0648L53.6507 41.1752C52.9855 41.406 52.234 41.528 51.3865 41.528V43.528ZM54.3004 43.0668C55.2208 42.7538 56.032 42.2862 56.7182 41.6572L55.3667 40.1828C54.901 40.6098 54.3362 40.9422 53.6566 41.1732L54.3004 43.0668ZM56.7081 41.6663C57.4174 41.0337 57.9588 40.26 58.3335 39.3606L56.4874 38.5914C56.2221 39.228 55.8515 39.7503 55.3769 40.1737L56.7081 41.6663ZM58.3335 39.3606C58.7131 38.4497 58.8905 37.4351 58.8905 36.336H56.8905C56.8905 37.2209 56.7478 37.9663 56.4874 38.5914L58.3335 39.3606ZM58.8905 36.336C58.8905 35.1512 58.6871 34.0718 58.2437 33.1271L56.4332 33.9769C56.7258 34.6002 56.8905 35.3768 56.8905 36.336H58.8905ZM58.2538 33.1493C57.8491 32.2294 57.2933 31.4475 56.5766 30.8276L55.2683 32.3404C55.7356 32.7445 56.1239 33.2746 56.4232 33.9547L58.2538 33.1493ZM56.5881 30.8377C55.8956 30.2201 55.1112 29.7652 54.2405 29.4813L53.6204 31.3827C54.2218 31.5788 54.7654 31.8919 55.2569 32.3303L56.5881 30.8377ZM54.2655 29.4898C53.4397 29.1962 52.5905 29.048 51.7225 29.048V31.048C52.3585 31.048 52.9812 31.1558 53.5955 31.3742L54.2655 29.4898ZM51.7225 29.048H48.7465V31.048H51.7225V29.048ZM47.7465 30.048V42.528H49.7465V30.048H47.7465ZM64.6305 45H63.6305V46H64.6305V45ZM64.6305 37.128H65.6305V36.128H64.6305V37.128ZM62.9265 37.128H61.9265V38.128H62.9265V37.128ZM62.9265 34.944V33.944H61.9265V34.944H62.9265ZM64.6305 34.944V35.944H65.6305V34.944H64.6305ZM65.6625 27.528L64.9109 26.8684L64.9109 26.8684L65.6625 27.528ZM69.8385 26.52L69.5876 27.488L69.6045 27.4924L69.6216 27.4962L69.8385 26.52ZM70.9905 27L71.8581 27.4974L72.323 26.6865L71.5452 26.1679L70.9905 27ZM69.9585 28.8L69.2152 29.469L70.1391 30.4955L70.8261 29.2974L69.9585 28.8ZM69.4545 28.464L69.1128 29.4038L69.1255 29.4084L69.1383 29.4127L69.4545 28.464ZM67.5825 28.944L68.3508 29.5842L68.3508 29.5842L67.5825 28.944ZM67.1025 34.944H66.1025V35.944H67.1025V34.944ZM70.2705 34.944H71.2705V33.944H70.2705V34.944ZM70.2705 37.128V38.128H71.2705V37.128H70.2705ZM67.1025 37.128V36.128H66.1025V37.128H67.1025ZM67.1025 45V46H68.1025V45H67.1025ZM65.6305 45V37.128H63.6305V45H65.6305ZM64.6305 36.128H62.9265V38.128H64.6305V36.128ZM63.9265 37.128V34.944H61.9265V37.128H63.9265ZM62.9265 35.944H64.6305V33.944H62.9265V35.944ZM65.6305 34.944V30.864H63.6305V34.944H65.6305ZM65.6305 30.864C65.6305 29.5743 65.9382 28.7299 66.4142 28.1876L64.9109 26.8684C64.0109 27.894 63.6305 29.2737 63.6305 30.864H65.6305ZM66.4142 28.1876C66.8653 27.6735 67.5585 27.352 68.6625 27.352V25.352C67.1426 25.352 65.8358 25.8145 64.9109 26.8684L66.4142 28.1876ZM68.6625 27.352C68.9108 27.352 69.2168 27.3919 69.5876 27.488L70.0895 25.552C69.5963 25.4241 69.1182 25.352 68.6625 25.352V27.352ZM69.6216 27.4962C69.9447 27.568 70.212 27.6828 70.4358 27.832L71.5452 26.1679C71.0971 25.8692 70.5964 25.664 70.0555 25.5438L69.6216 27.4962ZM70.123 26.5026L69.091 28.3026L70.8261 29.2974L71.8581 27.4974L70.123 26.5026ZM70.7018 28.131C70.4497 27.8509 70.1374 27.6375 69.7708 27.5153L69.1383 29.4127C69.1557 29.4185 69.1794 29.4291 69.2152 29.469L70.7018 28.131ZM69.7963 27.5242C69.508 27.4194 69.2081 27.368 68.9025 27.368V29.368C68.981 29.368 69.0491 29.3806 69.1128 29.4038L69.7963 27.5242ZM68.9025 27.368C68.086 27.368 67.3486 27.6626 66.8143 28.3038L68.3508 29.5842C68.4564 29.4574 68.5991 29.368 68.9025 29.368V27.368ZM66.8143 28.3038C66.2612 28.9675 66.1025 29.926 66.1025 30.912H68.1025C68.1025 30.042 68.2638 29.6885 68.3508 29.5842L66.8143 28.3038ZM66.1025 30.912V34.944H68.1025V30.912H66.1025ZM67.1025 35.944H70.2705V33.944H67.1025V35.944ZM69.2705 34.944V37.128H71.2705V34.944H69.2705ZM70.2705 36.128H67.1025V38.128H70.2705V36.128ZM66.1025 37.128V45H68.1025V37.128H66.1025ZM67.1025 44H64.6305V46H67.1025V44Z" fill="#EDEDED"/>
</g>
<g filter="url(#filter1_d_29_35)">
<path d="M79.0316 29.554C78.1916 31.858 77.3456 34.156 76.4936 36.448C75.6536 38.74 74.8076 41.038 73.9556 43.342H72.2816C73.1336 41.038 73.9796 38.74 74.8196 36.448C75.6716 34.156 76.5176 31.858 77.3576 29.554H79.0316Z" fill="#19BE3E"/>
<path d="M79.0316 29.554L79.9711 29.8965L80.4606 28.554H79.0316V29.554ZM76.4936 36.448L75.5562 36.0996L75.5547 36.1039L76.4936 36.448ZM73.9556 43.342V44.342H74.652L74.8935 43.6888L73.9556 43.342ZM72.2816 43.342L71.3437 42.9952L70.8456 44.342H72.2816V43.342ZM74.8196 36.448L73.8822 36.0996L73.8807 36.1039L74.8196 36.448ZM77.3576 29.554V28.554H76.6578L76.4181 29.2115L77.3576 29.554ZM78.0921 29.2115C77.2528 31.5135 76.4075 33.8095 75.5563 36.0996L77.4309 36.7964C78.2837 34.5025 79.1304 32.2025 79.9711 29.8965L78.0921 29.2115ZM75.5547 36.1039C74.715 38.395 73.8693 40.6921 73.0177 42.9952L74.8935 43.6888C75.7458 41.3839 76.5922 39.085 77.4325 36.7921L75.5547 36.1039ZM73.9556 42.342H72.2816V44.342H73.9556V42.342ZM73.2195 43.6888C74.0718 41.3839 74.9182 39.085 75.7585 36.7921L73.8807 36.1039C73.041 38.395 72.1953 40.6921 71.3437 42.9952L73.2195 43.6888ZM75.7569 36.7964C76.6097 34.5025 77.4564 32.2025 78.2971 29.8965L76.4181 29.2115C75.5788 31.5135 74.7335 33.8095 73.8823 36.0996L75.7569 36.7964ZM77.3576 30.554H79.0316V28.554H77.3576V30.554Z" fill="#19BE3E"/>
</g>
<g filter="url(#filter2_d_29_35)">
<path d="M43.76 32.528L34.868 37.676L43.76 42.86V46.892L27.812 37.676L43.76 28.496V32.528Z" fill="#19BE3E"/>
</g>
<g filter="url(#filter3_d_29_35)">
<path d="M81.24 30.528L90.132 35.676L81.24 40.86V44.892L97.188 35.676L81.24 26.496V30.528Z" fill="#19BE3E"/>
</g>
<defs>
<filter id="filter0_d_29_35" x="42.1787" y="26.352" width="32.812" height="26.648" filterUnits="userSpaceOnUse" color-interpolation-filters="sRGB">
<feFlood flood-opacity="0" result="BackgroundImageFix"/>
<feColorMatrix in="SourceAlpha" type="matrix" values="0 0 0 0 0 0 0 0 0 0 0 0 0 0 0 0 0 0 127 0" result="hardAlpha"/>
<feOffset dy="4"/>
<feGaussianBlur stdDeviation="2"/>
<feComposite in2="hardAlpha" operator="out"/>
<feColorMatrix type="matrix" values="0 0 0 0 1 0 0 0 0 1 0 0 0 0 1 0 0 0 0.25 0"/>
<feBlend mode="normal" in2="BackgroundImageFix" result="effect1_dropShadow_29_35"/>
<feBlend mode="normal" in="SourceGraphic" in2="effect1_dropShadow_29_35" result="shape"/>
</filter>
<filter id="filter1_d_29_35" x="68.2817" y="29.554" width="14.75" height="21.788" filterUnits="userSpaceOnUse" color-interpolation-filters="sRGB">
<feFlood flood-opacity="0" result="BackgroundImageFix"/>
<feColorMatrix in="SourceAlpha" type="matrix" values="0 0 0 0 0 0 0 0 0 0 0 0 0 0 0 0 0 0 127 0" result="hardAlpha"/>
<feOffset dy="4"/>
<feGaussianBlur stdDeviation="2"/>
<feComposite in2="hardAlpha" operator="out"/>
<feColorMatrix type="matrix" values="0 0 0 0 0 0 0 0 0 0 0 0 0 0 0 0 0 0 0.25 0"/>
<feBlend mode="normal" in2="BackgroundImageFix" result="effect1_dropShadow_29_35"/>
<feBlend mode="normal" in="SourceGraphic" in2="effect1_dropShadow_29_35" result="shape"/>
</filter>
<filter id="filter2_d_29_35" x="23.812" y="28.496" width="23.9478" height="26.3961" filterUnits="userSpaceOnUse" color-interpolation-filters="sRGB">
<feFlood flood-opacity="0" result="BackgroundImageFix"/>
<feColorMatrix in="SourceAlpha" type="matrix" values="0 0 0 0 0 0 0 0 0 0 0 0 0 0 0 0 0 0 127 0" result="hardAlpha"/>
<feOffset dy="4"/>
<feGaussianBlur stdDeviation="2"/>
<feComposite in2="hardAlpha" operator="out"/>
<feColorMatrix type="matrix" values="0 0 0 0 0.0980392 0 0 0 0 0.745098 0 0 0 0 0.243137 0 0 0 0.5 0"/>
<feBlend mode="normal" in2="BackgroundImageFix" result="effect1_dropShadow_29_35"/>
<feBlend mode="normal" in="SourceGraphic" in2="effect1_dropShadow_29_35" result="shape"/>
</filter>
<filter id="filter3_d_29_35" x="77.2402" y="26.496" width="23.9478" height="26.3961" filterUnits="userSpaceOnUse" color-interpolation-filters="sRGB">
<feFlood flood-opacity="0" result="BackgroundImageFix"/>
<feColorMatrix in="SourceAlpha" type="matrix" values="0 0 0 0 0 0 0 0 0 0 0 0 0 0 0 0 0 0 127 0" result="hardAlpha"/>
<feOffset dy="4"/>
<feGaussianBlur stdDeviation="2"/>
<feComposite in2="hardAlpha" operator="out"/>
<feColorMatrix type="matrix" values="0 0 0 0 0.0980392 0 0 0 0 0.745098 0 0 0 0 0.243137 0 0 0 0.5 0"/>
<feBlend mode="normal" in2="BackgroundImageFix" result="effect1_dropShadow_29_35"/>
<feBlend mode="normal" in="SourceGraphic" in2="effect1_dropShadow_29_35" result="shape"/>
</filter>
</defs>
</svg>
